<svg id="Layer_1" data-name="Layer 1" xmlns="http://www.w3.org/2000/svg" viewBox="0 0 522.01 270.6"><title>ikonlar</title><path d="M451.42,8.07a10.13,10.13,0,0,0-11.11,1.59,10.14,10.14,0,0,0-3.44,10.58,111.85,111.85,0,0,1,2.91,34.13c-3.44,55.56-48.15,100-103.71,103.44a124,124,0,0,1-34.13-2.64,9.82,9.82,0,0,0-10.58,3.7A10.65,10.65,0,0,0,289.77,170a121.56,121.56,0,0,0,110.59,70.37,55.31,55.31,0,0,0,6.61-.26c61.12-3.17,111.38-53.71,114.82-114.82A120.71,120.71,0,0,0,451.42,8.07Z" style="fill:#fff"/><path d="M46.4,135.3a11.59,11.59,0,0,0-11.59-11.59H11.59a11.59,11.59,0,0,0,0,23.17H34.81A11.59,11.59,0,0,0,46.4,135.3Z" style="fill:#fff;fill-rule:evenodd"/><path d="M58,201a11.47,11.47,0,0,0-8.2,3.39L34.32,219.86a11.75,11.75,0,0,0-3.4,8.23,11.58,11.58,0,0,0,19.78,8.19l15.48-15.47A11.59,11.59,0,0,0,58,201Z" style="fill:#fff;fill-rule:evenodd"/><path d="M135.3,46.4a11.59,11.59,0,0,0,11.59-11.59V11.59a11.59,11.59,0,0,0-23.17,0V34.81A11.59,11.59,0,0,0,135.3,46.4Z" style="fill:#fff;fill-rule:evenodd"/><path d="M212.61,69.57a11.46,11.46,0,0,0,8.2-3.39l15.47-15.44a11.76,11.76,0,0,0,3.4-8.23,11.61,11.61,0,0,0-11.59-11.59,11.75,11.75,0,0,0-8.23,3.4L204.42,49.79a11.59,11.59,0,0,0,8.2,19.78Z" style="fill:#fff;fill-rule:evenodd"/><path d="M49.79,66.18A11.59,11.59,0,0,0,66.18,49.79L50.74,34.32a11.75,11.75,0,0,0-8.23-3.4A11.58,11.58,0,0,0,34.32,50.7Z" style="fill:#fff;fill-rule:evenodd"/><path d="M259,123.71H235.79a11.59,11.59,0,1,0,0,23.17H259a11.59,11.59,0,1,0,0-23.17Z" style="fill:#fff;fill-rule:evenodd"/><path d="M220.81,204.42a11.59,11.59,0,0,0-16.39,16.39l15.44,15.47a11.76,11.76,0,0,0,8.23,3.4,11.61,11.61,0,0,0,11.59-11.59,11.75,11.75,0,0,0-3.4-8.23Z" style="fill:#fff;fill-rule:evenodd"/><path d="M135.3,224.2a11.59,11.59,0,0,0-11.59,11.59V259a11.59,11.59,0,0,0,23.17,0V235.79A11.59,11.59,0,0,0,135.3,224.2Z" style="fill:#fff;fill-rule:evenodd"/><path d="M135.3,54.14a81.16,81.16,0,1,0,81.16,81.16A81.22,81.22,0,0,0,135.3,54.14Z" style="fill:#fff;fill-rule:evenodd"/><path d="M135.3,193.28a58,58,0,1,1,58-58,58,58,0,0,1-58,58Z" style="fill:#fff;fill-rule:evenodd"/></svg>