<svg id="Layer_1" data-name="Layer 1" xmlns="http://www.w3.org/2000/svg" viewBox="0 0 537.96 232.97"><title>ikonlar</title><path d="M408.72,217.32C404.45,142.11,342.2,80.08,269,80.08s-135.47,62-139.74,137.23H8.23A8.23,8.23,0,0,0,0,225.55H0a8.23,8.23,0,0,0,8.23,8.23h521.5a8.23,8.23,0,0,0,8.23-8.23h0a8.23,8.23,0,0,0-8.23-8.23Z" style="fill:#fff"/><rect x="260.75" y="0.48" width="16.47" height="54.9" rx="8.23" ry="8.23" style="fill:#fff"/><path d="M378.76,82.16l26.78-26.78a8.23,8.23,0,0,1,11.64,0h0a8.23,8.23,0,0,1,0,11.64L390.4,93.8a8.23,8.23,0,0,1-11.64,0h0A8.23,8.23,0,0,1,378.76,82.16ZM372.93,88" style="fill:#fff"/><path d="M126.25,55.38h0a8.23,8.23,0,0,1,11.65,0l26.78,26.78a8.23,8.23,0,0,1,0,11.65h0a8.23,8.23,0,0,1-11.65,0L126.25,67A8.23,8.23,0,0,1,126.25,55.38Zm-5.82,5.82" style="fill:#fff"/><rect x="428.17" y="173.4" width="49.41" height="16.47" rx="8.23" ry="8.23" style="fill:#fff"/><rect x="60.39" y="173.4" width="49.4" height="16.47" rx="8.23" ry="8.23" style="fill:#fff"/></svg>