<svg id="Layer_1" data-name="Layer 1" xmlns="http://www.w3.org/2000/svg" viewBox="0 0 376.6 215.38"><title>ikonlar</title><path d="M283.44,38.85c-3.88.64-8,1.41-12.25,2.31a5.63,5.63,0,0,0,1.15,11.14,5.73,5.73,0,0,0,1.16-.12c4.08-.86,8-1.61,11.76-2.22a5.63,5.63,0,1,0-1.83-11.11Zm0,0" style="fill:#fff"/><path d="M246.83,47.13a644.69,644.69,0,0,0-73.06,25.49,637,637,0,0,0-72.33,35.15,5.63,5.63,0,1,0,5.61,9.76,625.56,625.56,0,0,1,71-34.51,633.2,633.2,0,0,1,71.76-25,5.63,5.63,0,1,0-3-10.85Zm0,0" style="fill:#fff"/><path d="M374.82,30.43c-6.95-16.78-32.64-23.2-74.3-18.56a382.59,382.59,0,0,0-48.56,9A106.61,106.61,0,0,0,188.29,0,107.84,107.84,0,0,0,81.85,91.29a382.43,382.43,0,0,0-40.66,28C8.45,145.47-5.18,168.17,1.77,185c5.07,12.24,19.91,18.93,44.13,19.89q3,.12,6.1.12c19.94,0,44.83-3.57,72.59-10.41a107.74,107.74,0,0,0,170.16-70.47c27.18-16.43,49-33.22,63.16-48.63C374.17,57.76,379.86,42.61,374.82,30.43ZM220.53,184.93a83.48,83.48,0,0,1-12.93,4.2,5.63,5.63,0,1,1-2.59-11,71.9,71.9,0,0,0,11.18-3.63,5.63,5.63,0,0,1,4.34,10.38ZM269.73,127a84,84,0,0,1-29.94,46.65,5.63,5.63,0,0,1-6.93-8.87,72.66,72.66,0,0,0,25.92-40.37,5.63,5.63,0,1,1,11,2.59Zm79.89-59.16c-12.23,13.3-30.67,27.81-53.66,42.27,0-.81,0-1.61,0-2.42a109.43,109.43,0,0,0-.71-12.43C326,75,339.16,58.83,334.34,47.2c-3-7.15-11.45-10.65-26-10.69h0a5.63,5.63,0,0,0,0,11.26c11.1,0,15,2.37,15.59,3.74s-.38,5.21-7,12.22c-5.38,5.72-13.53,12.35-23.8,19.38a107.06,107.06,0,0,0-5.32-16.53l0-.11,0-.11-.24-.59a5.6,5.6,0,0,0-2.64-2.82c-5-3.18-15.48-2.12-34.91,3.17-19,5.16-43.42,13.8-68.83,24.33s-48.8,21.7-65.87,31.47c-22.21,12.71-29.39,20-26.5,27,0,.09.09.17.13.25s.1.3.17.45a108.36,108.36,0,0,0,7.69,14.85c-33,6.17-43.17,1.68-44.11-.59-.47-1.14.26-4.77,6-11.17S74,138.55,86.22,130.38A5.63,5.63,0,1,0,80,121c-30.19,20.14-42.52,35.57-37.72,47.17,2.95,7.12,11.84,10.68,26.55,10.68q14,0,35-4.32a107.35,107.35,0,0,0,10,11c-26.31,6-49.48,8.77-67.49,8.05-18.88-.75-31-5.35-34.17-12.95-4.63-11.17,8.85-30.81,36-52.56a375.23,375.23,0,0,1,41.49-28.4l.46-.27a611.84,611.84,0,0,1,78.54-39c103.79-43,186.45-48,195.71-25.67C367.55,42.29,362.29,54,349.61,67.83Z" style="fill:#fff"/></svg>