<svg id="Layer_1" data-name="Layer 1" xmlns="http://www.w3.org/2000/svg" viewBox="0 0 174.68 233.3"><title>logo ve ikonlar</title><path d="M164.27,57.75c-9.16-14.11-18.88-18.69-34.84-22.18,11.19,6.78,28.11,26.27,25.49,48.22-2.49,20.85-9,32.77-24.57,48.58-14.41,14.64-35.57,29-35.57,29l-.37-12.11,15.22-10.63-2.2-10.27s35-11.74,34.65-51.34c-.37-36.67-34.65-48.4-34.65-48.4l1.28-8.07L87.41.14V0l-.07.06L87.27,0V.14L66,20.53l1.28,8.07S33,40.33,32.59,77c-.4,39.6,34.65,51.34,34.65,51.34L65,138.6l15.22,10.63-.37,12.11s-21.16-14.34-35.57-29c-15.56-15.81-22.07-27.73-24.56-48.58-2.62-21.94,14.3-41.44,25.48-48.22-15.95,3.48-25.67,8.07-34.83,22.18C-.74,74.92-1.69,98.45,1.79,114.59s13.75,26.58,25.66,38.5,22.92,25.66,22.92,25.66v2.75L70,167.38l7,5.32L54.77,188.29a7.66,7.66,0,0,0-1.61,1A10.31,10.31,0,1,0,67,192.94l13-8.69v22.49a14.27,14.27,0,1,0,20.73,16.72,8.39,8.39,0,0,0,.76-3.46,18.4,18.4,0,0,0-.11-1.86,14.23,14.23,0,0,0-5.36-10.22,15.08,15.08,0,0,0-1.5-1.12V184.25l13,8.69a10.32,10.32,0,1,0,13.88-3.66,7.67,7.67,0,0,0-1.61-1L97.72,172.7l7-5.32,19.62,14.12v-2.75s11.06-13.81,22.91-25.66,22.18-22.37,25.67-38.5S175.42,74.92,164.27,57.75ZM105.79,38.86s26,11.18,26,39.42-26.22,40.15-26.22,40.15a369.5,369.5,0,0,1-3.67-41.07A160.17,160.17,0,0,1,105.79,38.86Zm-33,38.5a370.51,370.51,0,0,1-3.67,41.07S42.86,106.52,42.86,78.28s26-39.42,26-39.42A160.09,160.09,0,0,1,72.75,77.36Z" style="fill:#fff;fill-rule:evenodd"/></svg>