<svg id="Layer_1" data-name="Layer 1" xmlns="http://www.w3.org/2000/svg" viewBox="0 0 292.11 292.11"><title>ikonlar</title><path d="M73.45,30.76q2.36-1.5,4.78-2.88c.88-.52,1.76-1,2.69-1.55,2.26-1.24,4.54-2.4,6.87-3.49,1-.47,2-.93,3-1.38,1.71-.74,3.4-1.45,5.14-2.14.95-.38,1.9-.79,2.85-1.14,2.48-.9,5-1.76,7.47-2.52.92-.29,1.88-.52,2.81-.79,1.95-.55,3.89-1.06,5.9-1.52.88-.21,1.76-.43,2.66-.61,2.71-.6,5.47-1.1,8.23-1.5.61-.1,1.26-.17,1.87-.26,2.33-.31,4.69-.55,7-.76l2.45-.17c2.95-.19,5.87-.3,8.84-.3q3.85,0,7.7.21l2.18.16c1.86.15,3.71.31,5.54.5.81.1,1.62.21,2.43.33,1.78.21,3.54.47,5.3.78l2.35.43c1.83.36,3.66.74,5.47,1.16.66.17,1.35.31,2,.48,2.23.54,4.47,1.16,6.68,1.83a6.88,6.88,0,0,0,.66.19q3.53,1.1,7,2.4c.93.36,1.83.71,2.76,1.1q2,.78,4,1.64c1.16.5,2.31,1,3.42,1.55s2,1,3.07,1.47c.74.36,1.47.74,2.21,1.12-18.61,7.47-30.17,16.61-43.1,33.45a12.67,12.67,0,0,0-2.68,8.2,13.07,13.07,0,0,0-4.95-6.16c-4.49-3-10.41-2.76-18,.64l-1.38.15c-9.77,1.1-15.17,1.71-15.64,12.31a15.17,15.17,0,0,0,7.35,13.53,13.55,13.55,0,0,0,3.71,1.55,5.56,5.56,0,0,0,.66,1.42l2,2.71,3.13-.52a33,33,0,0,1,6.44-.5,11.45,11.45,0,0,0,1.11,6.32,10.84,10.84,0,0,0,6.57,5.63c2.73.83,3,1.67,3.3,2.81,1.56,5.37,5.13,9.35,9.77,10.89,4.42,1.5,9.34.52,13.5-2.59,2.52-1.9,3.92-1.5,9.39,1.14,3.57,1.71,8,3.88,13.76,4.61a3,3,0,0,1,1.67.6c3.94,4.16,7,9.32,9.94,14.33,4.49,7.66,8.75,14.88,16,18.68,5.73,3-.69,19.76-3.75,27.84-.61,1.61-1.19,3.13-1.69,4.49-7.42,5.7-11.93,12.2-16.33,18.47-3.92,5.63-8,11.46-14.28,16.86-9.51,8.2-17.54,13.1-26.89,16.42a2.62,2.62,0,0,1-2.9-.81,2.41,2.41,0,0,1-.29-2.83c9.6-17.21,20.73-41.45,6.35-53.36-14.12-11.65-19.39-28.6-13.46-43.12,2.5-6.18-.3-13.1-6.51-16.36-.55-.64-.92-3.47-1.16-5.35-.55-4.11-1.24-9.22-4.28-13.69a14.66,14.66,0,0,0-5.08-4.28c-5.95-2.92-11.65-3.75-17.17-4.54a57.9,57.9,0,0,1-12.79-2.88C95,85,83.55,58.81,75.17,39.7,74,37,72.81,34.33,71.69,31.88Z" style="fill:#fff"/><path d="M228.85,25.82l.24-.14-6.44-4c-.38-.24-.79-.43-1.16-.66-2.12-1.28-4.26-2.5-6.44-3.66-1.1-.59-2.21-1.16-3.33-1.73-1.64-.83-3.3-1.61-5-2.4-1-.45-2-.91-3-1.33-2.61-1.12-5.25-2.18-7.91-3.16-.55-.19-1.12-.36-1.67-.57-2.36-.81-4.73-1.57-7.11-2.26-.76-.24-1.52-.46-2.31-.67-2.63-.74-5.32-1.4-8-2L176,3.12c-3-.65-6-1.14-9.08-1.59-.67-.1-1.36-.16-2-.26-2.4-.31-4.8-.55-7.23-.74-.81-.07-1.61-.15-2.45-.19-3-.21-6.09-.33-9.15-.33-3.33,0-6.61.14-9.89.38-.86,0-1.71.12-2.57.19-3.07.26-6.11.59-9.13,1-.31,0-.61.07-.9.12-3,.47-6,1.07-9,1.71-1,.22-2,.46-2.95.69-2.73.66-5.45,1.38-8.11,2.21-.86.26-1.69.52-2.52.81-2.4.78-4.78,1.61-7.11,2.52-1.07.4-2.14.83-3.21,1.26C88,12,85.32,13.19,82.73,14.45c-.86.43-1.72.88-2.57,1.33-2,1-4,2.09-6,3.23-1,.55-2,1.1-3,1.69-2.47,1.48-4.89,3-7.27,4.66-.33.21-.66.4-1,.64l-2.67,1.83,0,.12A145.86,145.86,0,0,0,0,146.05c0,80.54,65.52,146.05,146.05,146.05s146.05-65.52,146.05-146.05A146,146,0,0,0,228.85,25.82ZM146.05,282.36c-75.17,0-136.3-61.14-136.3-136.3A136.08,136.08,0,0,1,63.59,37.61c.86,1.92,1.73,3.92,2.67,6,9.58,21.85,21.49,49,41.41,56.65a64.61,64.61,0,0,0,14.86,3.4c5,.74,9.72,1.43,14.31,3.66a6.61,6.61,0,0,1,1.33,1c1.73,2.57,2.21,6.09,2.67,9.48.61,4.71,1.33,10,6.09,12.55,1.56.83,2.92,2.47,2.21,4.18-7.56,18.57-1.17,39.89,16.26,54.32,4.47,3.71,6.61,13.83-8.6,41.1a12.32,12.32,0,0,0,10.77,18.28,12.94,12.94,0,0,0,4.19-.71c10.53-3.76,19.49-9.2,30-18.21,7.25-6.21,11.65-12.53,15.93-18.66s8.39-12,15.07-16.92a5.78,5.78,0,0,0,2.09-2.81c.52-1.55,1.21-3.35,2-5.35,5-13.12,12.58-32.95-.85-39.93-4.83-2.5-8.2-8.3-12.15-15-3.07-5.23-6.54-11.15-11.27-16.12A12.24,12.24,0,0,0,205,111c-4.19-.55-7.52-2.16-10.77-3.73-5.35-2.59-12-5.8-19.47-.17a5.16,5.16,0,0,1-4.59,1.17c-1.57-.52-2.83-2.12-3.49-4.38-1-3.28-2.93-7.27-9.8-9.41a1.16,1.16,0,0,1-.69-.61,2,2,0,0,1,0-1.59,6.85,6.85,0,0,0-1-6.94c-1.73-2.11-4.83-3.18-9.24-3.26a5,5,0,0,0-1.28-2.31l-3-2.68-3.33,1.95a2.66,2.66,0,0,1-2.87-.19,5.46,5.46,0,0,1-2.64-4.73c0-1.12.12-1.76.17-2.12a56.25,56.25,0,0,1,6.82-1l2.95-.33.71-.33c4.35-2,7.82-2.64,9.32-1.69.6.4,2.53,2.28,2.31,10.13l-.12,4.3,4.25.65c5.56.83,9.68-.26,12.24-3.21s3.13-7.56,1.42-13.43a3.1,3.1,0,0,1,.55-2.66c13.48-17.52,24.79-25.6,46.3-33a136.3,136.3,0,0,1,62.61,114.6C282.36,221.22,221.22,282.36,146.05,282.36Z" style="fill:#fff"/></svg>