<svg id="Layer_1" data-name="Layer 1" xmlns="http://www.w3.org/2000/svg" viewBox="0 0 222.86 301.03"><title>ikonlar</title><path d="M217.3,15.65c-2.44-1-56.91-22.57-100.25.41C87.14,31.93,34.06,21,17.7,17V8.85A8.85,8.85,0,1,0,0,8.85V292.17a8.85,8.85,0,1,0,17.7,0V181.8c13,3,34.3,6.9,56.46,6.9,20.85,0,38.07-3.52,51.18-10.48,35.37-18.75,84.87.21,85.3.38l.11,0a8.85,8.85,0,0,0,12.11-8.24V23.86A8.9,8.9,0,0,0,217.3,15.65ZM98.84,127.79a29,29,0,0,0,20.52-8.48,36,36,0,1,1,0-41.21,29.08,29.08,0,1,0-20.52,49.69Zm52.45-19.13-11.13-3.9L133,114.15l.26-11.8-11.13-3.9,11.3-3.38.27-11.8L140.42,93l11.31-3.4L144.58,99Z" style="fill:#fff"/></svg>