<svg id="Layer_1" data-name="Layer 1" xmlns="http://www.w3.org/2000/svg" viewBox="0 0 206.79 233.3"><title>logo ve ikonlar</title><path d="M165.34,97.11l14.3-24.5H145.69l0,0h-18.1l0,0H83.73L92.88,57H118.4l0,0h18.1v0h70.29l-32.4,55.52ZM103,30.82,87.67,57h.1L78.62,72.61h0L55.59,112,46.54,96.56l14-23.95h0l11-18.82,0,0L102.9,0l31,52.58h-18.1ZM27.3,72.61,44,100.93h0l13.8,23.52,0,0,18.83,31.93H58.55l-9.7-16.46h0L47,136.73l-2.94-5h0l-9.09-15.35,0-.05L0,57H64.55L55.4,72.61ZM41.5,136.12,27.16,160.69H53.1v.07H84.83v-.07h38.27l-9.16,15.6H88.39l.05.08H70.35l-.05-.08H0l32.41-55.51Zm62.33,66.35,15.29-26.19H119l9.16-15.6h0l23-39.33,9.09,15.36-14,24h0L135,180h0L103.9,233.3l-31-52.52H91Zm75.67-41.79-12.4-21h0L153.73,117v0L130.21,77.07h18.11l14.43,24.48,0-.07,9.06,15.43,0,0,35,59.35H142.27l9.16-15.6Z" style="fill:#eb9532;fill-rule:evenodd"/></svg>