<svg id="Layer_1" data-name="Layer 1" xmlns="http://www.w3.org/2000/svg" viewBox="0 0 235.72 233.3"><title>logo ve ikonlar</title><path d="M67.74,184.43H12.26l26-50.67L0,100,47.26,79.36,42.17,25.54,93.33,41.78,119,0l28,42.72,48.9-16.3-6.62,52.9,46.5,21L200,133.81,224.21,182l-52.27.66L158,232.49l-36.86-33.35L78.34,233.3l-10.6-48.87ZM65.13,89.88l-34.23,15,28.3,25L39.77,167.62H81.29L89,203.29l32.81-26.19,27.31,24.72,10-35.75,38-.48-17.79-35.43,26.52-24.89L171,89.55l4.85-38.76L140,62.75,119.43,31.38,104.21,56.17l-3.44,5.61L61.29,49.24l3.84,40.65Z" style="fill:#fff"/></svg>