<svg id="Layer_1" data-name="Layer 1" xmlns="http://www.w3.org/2000/svg" viewBox="0 0 227.29 233.3"><title>logo ve ikonlar</title><path d="M147.78,66.45a12.37,12.37,0,1,1,12.37,12.37A12.37,12.37,0,0,1,147.78,66.45ZM81.07,160.33A12.13,12.13,0,1,1,68.94,148.2,12.13,12.13,0,0,1,81.07,160.33Zm143.85-140c-4.61,6.79-12.37,14.8-38.33,15s-49-3.15-55.31-2.18-8,3.4-7.76,11.89,4.13,56.28,4.13,56.28,30.32-1.21,47.55-1.7,31-1,35.9,14.56,2.91,22.8,2.43,42.21.73,44.39,6.55,52.88,9,13.83,1.45,19.16-13.1,5.82-18.44-.73S188.53,201.08,189,181.19s2.43-47.31,2.19-51.43-1-6.55-15.77-6.06-44.63,2.67-44.63,2.67,1,22.32,1,45.12.49,45.61-32.26,44.39S44,211,30.85,220.73s-18.19,13.34-23.77,9.22S-2.62,219,2,213.45s22.29-18.67,41.72-21.59,39.26-.19,54.1,1c8.22.64,9.35-.62,9.22-19.89-.11-15.53-1.26-33.43-2.23-44.1-10.43,1.46-48.15,5.4-66,2.82S8.72,123.21,11.07,93.15s3.52-53.77,1.41-60.58S8.05,21.33,3.93,16.48,3.68,5.32,8.05,2.41s14.8-5.58,21.1,7.28,8.74,32.75,7.52,52.4S32.8,103.56,34,105,52.2,107.93,72.33,107s30.56-2.67,30.56-2.67-2.43-24-2.67-49,1.69-36.39,10.91-40.76,15-6.55,48-4.61,38.57,2.91,43.18-1.45S214-3.17,220.55,1.68,229.52,13.57,224.92,20.36ZM68.69,78.58A12.37,12.37,0,1,1,81.07,66.21,12.37,12.37,0,0,1,68.69,78.58Zm91.7,69.86a12.13,12.13,0,1,1-12.13,12.13A12.13,12.13,0,0,1,160.39,148.44Z" style="fill:#eb9532;fill-rule:evenodd"/></svg>