<svg id="Layer_1" data-name="Layer 1" xmlns="http://www.w3.org/2000/svg" viewBox="0 0 225.5 233.3"><title>logo ve ikonlar</title><path d="M140.65,0l23,21.1-.23.47c-6,3-11.09,12.49-16.65,16.88-.91.72-4.22,4.59-5.63,4.22-5.31-4.73-19.85-13.49-20.87-20.17ZM98.45,17.12c8.07,13.36,16.38,23.15,31.42,27.91,8.39,2.65,18.6,2.16,26.13.13,9.38-2.54,26.38-15.18,31.79-19.36,5.49,7,11.5,12.47,16.88,22.75-4.57,7.09-10.88,10-16.71,13.31-41,23.29-70.69.46-79-9.38C103.87,46.4,95.84,28.51,98.45,17.12ZM74.6,46.89c16.75-.8,30.77,6.42,37.21,21.12,9.53,21.77-3.95,51-20.64,57.69,3.52,1.58,17.67,11.39,26.26,4.46,9.06-5.5,12.67-16.56,18.06-25.8,8.92-15.28,14.7-25.15,35.88-28.61a42.33,42.33,0,0,1,13.14-.23,31.77,31.77,0,0,1,12.9,4.92,56.38,56.38,0,0,1,14.54,14.3c16.61,23.59,17.84,64.46,4.29,91.49-6.42,12.8-14.6,22-29.14,25.77s-36.47.59-46.9-26.26c-2.37-6.09-5.87-27.68.94-35.41-.7,18.53,19.2,31.31,39.87,24.39,39.65-13.27,31-63.08,22.51-72.46s-21.56-4.2-27.9.7c-12.43,9.62-16.91,34-32.13,40.34C137,146,125.54,144.7,117,144.69c2.63,5.46,5.42,11,7,17.35,8.68,34.21-11.81,63.53-37.52,68.94-45.29,9.55-72.37-29.48-81.61-59.8-2.06-6.78-7.58-34.33-3.28-42.44,10.78,16.56,6.55,55.68,49.24,67.54,6.95,1.63,18.48,2.61,26.5.94,6.19-1.3,11.84-3.16,16.18-6.34,10.85-7.93,12.67-20.4,7.51-34s-24.28-11.7-34.7-10.79c4.63,6.53-13.93-18.87-15.48-35.88,26.2,4.48,39.43-1,44.78-8s3.45-13.27-1.2-17.5c-15-13.65-43.69,3.66-56.72,10C29.57,82,26.27,76.42,22.47,66.83,40.63,53.07,56.19,47.77,74.6,46.89Z" style="fill:#eb9532;fill-rule:evenodd"/></svg>