<svg id="Layer_1" data-name="Layer 1" xmlns="http://www.w3.org/2000/svg" viewBox="0 0 232.14 233.3"><title>logo ve ikonlar</title><path d="M216.2,101.23a15.87,15.87,0,0,0-10.31,3.8,89.75,89.75,0,0,0-18-44.19,15.93,15.93,0,1,0-17.52-17.31,89.72,89.72,0,0,0-41.53-17.11,15.93,15.93,0,1,0-24.06-.12A89.77,89.77,0,0,0,61.73,44,15.93,15.93,0,1,0,44.38,61.35a89.73,89.73,0,0,0-17,39.51,15.95,15.95,0,1,0-.87,23,89.78,89.78,0,0,0,19,47.75,15.93,15.93,0,1,0,17,16.49,89.69,89.69,0,0,0,43.42,17.23,15.94,15.94,0,1,0,22.49-.2,89.84,89.84,0,0,0,43.77-18.57,15.92,15.92,0,1,0,16.11-16.44A89.73,89.73,0,0,0,205.55,129a15.93,15.93,0,1,0,10.65-27.76ZM180.86,105c-6.2.44-21.12.52-22.67.56-7.74.18-11.66-2.77-5.46-9.07C162.18,87,171,77.44,171,77.44S180.94,90,180.86,105ZM139.09,79.13c-5.14,5.79-10.55,6.16-10.93-2.67-.58-13.44-.23-26-.23-26s15.25,1.41,26.21,11.7C150.23,67,140.12,78,139.09,79.13ZM135,115.91A18.71,18.71,0,1,1,116.48,97,18.71,18.71,0,0,1,135,115.91Zm-29.45-65c.55,6.19.92,21.11,1,22.66.33,7.74-2.54,11.72-9,5.64C87.86,70,78.17,61.32,78.17,61.32S90.55,51.15,105.59,50.93Zm-25.21,42c5.91,5,6.42,10.4-2.4,11-13.43.91-26,.87-26,.87S53,89.48,63,78.28C68,82.07,79.19,91.9,80.37,92.9ZM53,127.09c6.17-.7,21.08-1.44,22.63-1.55,7.73-.51,11.77,2.26,5.86,8.82-9,10-17.43,19.89-17.43,19.89S53.58,142.12,53,127.09Zm41.83,23.83c5-5.9,10.42-6.39,11,2.43.87,13.43.8,26,.8,26s-15.28-1.07-26.46-11.13C84,163.3,93.82,152.1,94.82,150.92Zm34.12,27.47c-.69-6.18-1.39-21.09-1.48-22.63-.5-7.73,2.28-11.78,8.82-5.84,10,9,19.84,17.48,19.84,17.48S144,177.85,128.94,178.39ZM152,138c-5.69-5.26-6-10.67,2.88-10.87,13.45-.32,26,.27,26,.27s-1.71,15.21-12.21,26C163.93,149.38,153.14,139.06,152,138Z" style="fill:#eb9532;fill-rule:evenodd"/></svg>