<svg id="Layer_1" data-name="Layer 1" xmlns="http://www.w3.org/2000/svg" viewBox="0 0 257.58 233.3"><title>logo ve ikonlar</title><g id="layer1"><path id="path2051" d="M4.54,0A2.79,2.79,0,0,0,2.89.52C-2.17,4.6,1,8.22,1,8.22s8.33,8.32,9.3,14.41,1.29,13.78,12.5,18.59S33,51.79,33,51.79s-2.57,7.06,11.21,7.37q11.06-.07,22.11-.07c2.76,5.14,10.32,7.7,4.72,7.7a7.13,7.13,0,0,0-7.25,5.34H40.27a1.37,1.37,0,0,1-1.16-1.34c0-1.16-2.18-1.16-2.18-1.16s-3.78-.29-3.78,1.6V91.74s-.58,4.36,4.36,4.36h33v19.5s-5.38.43-8.15,2.17-2.91,2.48-1.6,5.1,6.11,11.78,6.11,17.6v85.4s-.44,7.49,9.09,7.49c11,0,10.54-6.91,10.54-6.91V96.39H171V226.45s-.44,6.91,10.54,6.91c9.53,0,9.1-7.49,9.1-7.49v-85.4c0-5.82,4.8-15,6.11-17.6s1.17-3.36-1.6-5.1-8.16-2.17-8.16-2.17V96.09h33c4.95,0,4.36-4.36,4.36-4.36V71.22c0-1.89-3.77-1.6-3.77-1.6s-2.19,0-2.19,1.16a1.37,1.37,0,0,1-1.16,1.34H193.77a7.13,7.13,0,0,0-7.25-5.34c-5.53,0,1.76-2.5,4.61-7.5q11.11,0,22.22-.12c13.78-.32,11.22-7.37,11.22-7.37s-1-5.76,10.26-10.57,11.53-12.5,12.49-18.59,9.3-14.41,9.3-14.41,3.13-3.63-1.92-7.7c-2.23-1.8-9,1.6-9,1.6-47.6,26.77-193.86,26.49-233.87,0C11.86,2.12,7.4-.12,4.54,0ZM93.43,59.11l23.8.07V74.44h-19s-3.42-7.64-9.53-7.64C83.13,66.79,90.67,64.24,93.43,59.11Zm46.91.16,23.9.06c2.86,5,10.13,7.47,4.61,7.47-6.1,0-9.54,7.64-9.54,7.64h-19Z" style="fill:#fff"/></g></svg>