<svg id="Layer_1" data-name="Layer 1" xmlns="http://www.w3.org/2000/svg" viewBox="0 0 233.29 233.3"><title>logo ve ikonlar</title><path d="M116.65,0A116.65,116.65,0,1,0,233.29,116.65,116.78,116.78,0,0,0,116.65,0ZM13.42,116.65A102.76,102.76,0,0,1,43.7,43.7q2.61-2.61,5.38-5L70.41,102.6,16.5,141.68A104.25,104.25,0,0,1,13.42,116.65ZM217,140.74l-55-39.5,20.81-63.7q3.48,2.92,6.74,6.17a102.76,102.76,0,0,1,30.27,72.94A104.33,104.33,0,0,1,217,140.74Zm-88.19,16.59-12.44,38.08-12.75-38.16Zm.29-79.76L162.86,53.1,150,92.56Zm16.24,29.13-11.91,36.47-34.57-.11L87.15,108,117,86.33ZM82.45,93.87,68.22,51.28l36.66,26.34ZM75.12,116.7,83.91,143,39,142.87Zm73.21,26.52,9.09-27.84,38.94,28ZM117,68.85,61.83,29.21a103.08,103.08,0,0,1,109.74.07ZM88.66,157.2l20.84,62.4A103.55,103.55,0,0,1,21.64,157Zm34.7,62.43,20.35-62.26,67.69.21a103.55,103.55,0,0,1-88,62.05Z" style="fill:#eb9532"/></svg>