<svg id="Layer_1" data-name="Layer 1" xmlns="http://www.w3.org/2000/svg" viewBox="0 0 445 233.3"><title>logo ve ikonlar</title><path d="M444.63,90.86A128.67,128.67,0,0,0,424,90.38c-28-.63-55.91.09-83.86-.43-31.46-.05-62.93-.66-94.4-1.07,2.48-9,4-18.5,2.86-27.84-1-6-5.81-10.06-9.8-14.18a21.13,21.13,0,0,0-7.8-9.34,70.8,70.8,0,0,0,5.37-6c2-4.25-2.89-8.08-.91-12.28,1.11-4,5.65-7.59,3.6-12A36,36,0,0,0,213.56.19c-.7,4-.67,8.19-2.38,12-1.86,4-1.47,8.75-4,12.51,2.08,3.82,2.83,8.21,1.07,12.32-2.88,6.67-1.68,14-2.3,21-3-.08-6.3.73-8.95-1.1-3.88-2.28-8.67-2.65-12.18-5.59-3.33-2.92-7.79-3.62-12-4.35q1.12,3,2.49,5.9c-3-.52-6.14-1.25-9.25-.84-3.71,2.65,1.17,7.32,3.29,9.59a74.41,74.41,0,0,1,12.31,3.12c-2.41,2-5.36,3.7-6.71,6.67-5.31,7.83,3.21,19.59,12.16,17.9,5.57-3.26,12-3.7,18.15-5.39q.35,3,.67,6c-16.15.35-32.3-.13-48.45-.05-17.51.69-35-1.18-52.52.14-18.36,0-36.73-.82-55.07.06C35.26,90,20.65,89.87,6,89.68A13.52,13.52,0,0,0,1,90.35c-2.7,7.34.74,15,3.51,21.66-.28,3.46,1.65,6,4.13,8.14a12.33,12.33,0,0,0,6,8.81c1.28,3.22,3.46,6,6.85,7.08,3.16.91,3,5.38,6.21,6.23,2,.81,3.89,1.91,4.82,4,1.83,4,6.78,3.9,9.72,6.63,3.83,3.58,9.78,1.61,13.66,5.06,3.93,3.1,9.16,1.54,13.73,1.73,3,1.11,5.93,2.8,9.25,2.51,4,.4,7.53-1.71,11.27-2.67,3.24,1.2,6.4,3.12,10,2.86,3.13-.56,6-1.9,9-3a14.78,14.78,0,0,0,13.52,1.54c4.28-2.12,8.58,2.2,12.91.37a13.16,13.16,0,0,1,7.15-.36c14.44.07,28.77-.26,43.22.61-10.06,4.2-17.7,12.54-22.54,22.15-3.08,5.31-4.3,11.83-9.17,16-1-2.31-1.31-5.35-3.81-6.64-3.91-1-8.48,1.8-9,5.89-.62,3.75,2.21,7,5,9.1a14.62,14.62,0,0,0,13.75-3.5c3.69-3,4.86-7.87,6.88-12,3.35-6.78,6.42-14,12-19.3a32.11,32.11,0,0,1,13-7.32c-3.83,19.49-8.05,38.9-12.12,58.35a3.43,3.43,0,0,0,1.12,2.87,179.55,179.55,0,0,0,34.6,5.33c14.29-.42,28.84-.2,42.7-4.32l.67-.7c.79-9.84-3.16-19.22-4-28.93-2.3-11.27-4-22.64-5.8-34a37.31,37.31,0,0,1,13.34,9.64c7.77,7.66,9.36,19.15,16,27.62,2.41,3.33,5.59,6.85,10,7.16,5.14,1,10.07-3.25,10.8-8.21-.25-3.08-1.64-6.54-4.56-7.94-2.78-.59-5.13,1.33-6.83,3.29a57.2,57.2,0,0,0,1.23,5.64,30.73,30.73,0,0,1-8.1-11,97.15,97.15,0,0,0-14.56-22.86c-2.86-3.17-6.83-5-10.11-7.62,9.15-.2,18.44-.66,27.47,1.09,5.29-1.06,10.68-.69,16-1a38.65,38.65,0,0,0,14.07.49c5,2.23,10.46,1.5,15.41-.56,4.23,1.18,8.48,3.05,13,2.15,6.77-1.48,13.71,1.66,20.42-.43,6.36-2.26,14.16,2,19.66-2.88,3.06-2.66,8.12-.64,10.82-4.11,2.86-3.58,7.83-2.52,11.65-4.27,1.6-1.42,2.36-3.51,3.69-5.16,1.91-1.06,4-1.82,5.87-2.93,1.73-2,2.31-5,4.78-6.38,3.61-2.21,5.59-6.24,9.49-8.1,3.16-1.43,1.46-6.32,4.8-7.55,2.46-1.22,4.39-3.4,4.41-6.27s2.3-4.73,3.77-7C441.85,101.57,446.31,96.69,444.63,90.86Zm-74.86,1.4c11.49-.05,23,.2,34.47.49l1.43,3.72c-1.63.74-3.12,2.13-5,1.88-6-.18-12-.43-18-.92-4.8-.43-9.68.24-14.4-.9C368.61,95.47,369.38,93.33,369.77,92.26ZM257.72,118.84c4.56,3.49,9.68,6.39,13.51,10.72C264.95,129.59,260.21,124.09,257.72,118.84Zm4.46,9.74c-1.47.79-3.3-1.52-2.22-2.76C261.37,125.14,263.38,127.34,262.18,128.58Zm-3,8.46a50.2,50.2,0,0,1,6.27,7.49c-2.2,0-4.39-.19-6.59-.3C259.08,141.83,259.1,139.43,259.22,137Zm.1-6.64c4.46,4.4,8.9,8.83,13.26,13.33l-3.52,1.58C265.15,140.9,259.52,136.75,259.32,130.4Zm3.07,0c2.56.13,5.13.71,6.86,2.77,3.91,4,8.71,7,12.84,10.78-2.35.93-4.94,1.42-7-.42A104.75,104.75,0,0,1,262.39,130.44Zm7.46.93c2-.06,4.31-1.25,6,.43,5.3,4,10.45,8.23,16.07,11.81-2.72,2.64-7,1.38-9.39-1.06C278.29,138.81,273.92,135.25,269.85,131.37Zm21.36,10.14c-4.31-3.41-9.24-6-13.07-10,5.46-1.26,10,2.12,14.11,5.14,3.43,2.63,7.92,3.95,10.47,7.64C298.57,146.07,294.47,144.06,291.21,141.51ZM290.1,133c2.94-.54,6.21-1,8.75,1,5.52,3.72,11.8,6.08,17.33,9.76-3.88,2.57-8.64,1.13-12.17-1.31C299.48,139.18,294.48,136.55,290.1,133Zm25.27,8.43c-5-2.72-10-5.41-14.91-8.17l4.19-2.77c7.4,4.81,16,7.27,23.42,12A14.87,14.87,0,0,1,315.37,141.47Zm2.29-6.12c-3.29-1.45-7-2.53-9.15-5.67,2.42-.14,5-1.34,7.33-.07,6.18,2.62,12.2,5.6,18.55,7.79a27.33,27.33,0,0,1,7.89,4.12c-4.13,1-8.84,1.83-12.74-.36C325.63,139.12,321.72,137.06,317.66,135.34Zm15.81-.18c-5.25-2-10.36-4.31-15.6-6.37,1.79-1.44,3.85-3.26,6.26-2,9.17,3.49,18.38,6.92,27.77,9.83l-2.72,2.73C343.54,140.27,338.52,137.11,333.47,135.16Zm18.08-.34c-7.79-2.94-15.69-5.53-23.6-8.13l2.15-3.71c11,2.89,21.87,6.27,32.72,9.67A10.18,10.18,0,0,1,351.55,134.82Zm8.74-5C352,127,343.35,125,335,122.3l2.87-3.12c11.51,3.2,23.29,5.4,34.77,8.74C369.44,131.37,364.42,130.65,360.28,129.85Zm-18.46-10.77c1-1.43,2.08-2.85,3.15-4.26,11.71,2.57,23.57,4.47,35.26,7.15-.74,2-1.84,4.61-4.44,4.41C364.47,124.07,353.32,120.63,341.82,119.08Zm8.84-4.94c.91-1.47,1.82-2.95,2.74-4.42,11.74,2.52,23.82,3,35.52,5.8-1.32,2.82-4,5.55-7.38,4.63C371.32,117.75,360.85,116.68,350.66,114.14Zm6.7-5.64q1.67-2,3.36-4.05c11.37,2,22.92,2.28,34.34,3.78-.82,1.75-1.71,3.45-2.65,5.14C380.74,111.7,368.93,110.69,357.36,108.51ZM380,104.68c-5.35-.75-10.73-1-16.12-1.27l1.06-4.65c12.5.24,25,1.55,37.46,1.49,0,.83-.09,2.51-.13,3.34C395.27,107.51,387.42,104.66,380,104.68Zm-42.29-12.1c9.42-.31,18.86-.17,28.3-.27.06.86.16,2.57.21,3.43-1.63.43-3.18,1.63-4.93,1.28-8.85-1.52-17.87-.78-26.8-1.28Zm3.6,5.25c7,.93,14.36-.42,21.17,1.82l-2.74,3.21c-9.41-.37-18.73-1.87-28.13-2.36L331,99.08C333.86,96.61,337.81,97.37,341.27,97.82ZM329.39,102c9.43,1.61,19.08,1.12,28.44,3.11-3.85,4-9.57,2.43-14.42,1.94-6.4-1-12.86-1.65-19.25-2.66C325.66,103.11,327.2,101.24,329.39,102Zm-4.33,4c8.5,1.72,17.18,2.23,25.66,4-2.46,3.35-6.9,3.83-10.64,2.66-7.26-2.06-14.94-2.14-22.09-4.65C320.24,106.91,322.43,104.93,325.06,105.92Zm-7.45,3.36c8.14,2.65,16.8,3.25,24.91,5.87-2.3,1-4.76,3-7.43,2.16-8.53-2.42-17.25-4.07-25.9-6C311.81,110.11,314.62,108.13,317.61,109.28Zm.83,5.32c5.56,1.83,11.8,2,16.79,5.26-2.57.77-5.31,1.49-7.91.48-8.26-2.44-16.51-4.93-24.83-7.14C307.67,109.4,313,113.91,318.44,114.6Zm-9.19,1.8c5.79,2.26,11.84,3.78,17.82,5.46-.11.71-.35,2.13-.46,2.84a22.71,22.71,0,0,1-8.82-1.56c-7.6-2.87-15.43-5.16-22.86-8.47C299.78,112.43,304.61,114.92,309.24,116.39ZM301.47,119c5.17,1.83,10.29,3.81,15.55,5.38-.07.62-.21,1.86-.28,2.47-5.06.71-9.4-2.14-13.91-3.9-5.53-2.5-11.35-4.32-16.7-7.22C291.58,113.77,296.51,117.26,301.47,119Zm-8.16,1.82c5.5,2,10.88,4.3,16.27,6.58-2.06,1.44-4.76,2.4-7.12,1.06-8.56-4.2-17.21-8.21-25.86-12.22C282.81,114.11,287.79,118.89,293.31,120.78ZM274,116.34c7.67,3.53,15,7.71,22.88,10.83a8.21,8.21,0,0,1,4.69,3.95c-2.82.17-5.77.18-8.15-1.54-7.74-4.55-16.27-8-23.26-13.66Zm-5.17,1.18c7.26,5,16.08,7.59,22.59,13.68-4.11-.73-8.44-1.58-11.8-4.25-5.07-4-11.47-6.08-15.88-10.93A7.53,7.53,0,0,1,268.78,117.52Zm1.8,5.54c3,2,6.42,3.43,9,6.07-6.59,1-10.89-4.53-15.88-7.68-2.34-1.92-6.33-2.84-6-6.56C262.27,117.06,266.3,120.28,270.59,123.06ZM237.23,47.29c2,4.06,6.9,6,7.81,10.69.07,3.08-.47,6.15-.65,9.22-2.61-4.19-2.32-9.37-4.47-13.76-.19,3.77,1.65,7.27,1.37,11,2,1.58,4.29,3.29,3.65,6.2l-3.13.84c.76.37,1.51.75,2.26,1.14-2.79,5.85-2.19,13.24-7,18.08-1.51,3.09-2.8,6.32-5.07,9l-2.38-1.23a25.83,25.83,0,0,1,3.18,6.56l-3-1c.17,2.57.28,5.14.23,7.72-4.08-.93-5.38-5.25-7.57-8.28a163.41,163.41,0,0,1-7.7-20.35c-.08-3.21.67-6.88-2.65-8.8,5.53.84,11.2-1.9,16.41,1-.33-2.46-.34-5-1.48-7.29a30.25,30.25,0,0,0,6.13-7c-1.71-.35-3.43-.65-5.13-1a12,12,0,0,1,6.38-2.31l-2.51-1.25a41.34,41.34,0,0,0,1-6.6c-3,3.06-4.73,7-6.44,10.82-1,3.32-.92,7.1-3,10-2.32,1.58-5.11,2.27-7.75,3.13.37-2.35.69-4.78-1.18-6.61,1.66-1.28,3.31-2.58,5-3.86l-3.39-2.44c2.17-1.74,4.31-3.52,6.55-5.18l-2.12-1.18C222.83,51,225,47.27,227,43.5l2.87,3.85c.11-2.59.18-5.18.09-7.77C232.49,42,235.54,44.11,237.23,47.29Zm-7.7,75.64c2.5-1.64,5-3.2,7.6-4.73,1,2.43,2.11,4.82,3.12,7.26C236.62,124.85,233.08,123.84,229.52,122.93Zm11.3,5.27c-.58,1.93-5.67,1-4.63-1.21A3.49,3.49,0,0,1,240.82,128.2Zm.65,5.25,1.29,2.29c-5.49-3.23-11.49-6.22-15.53-11.29C232.64,126.28,236.75,130.44,241.47,133.45Zm-1,3c1.68.87,2.32,2.74,3.27,4.26-4.55-2.44-8.63-5.61-13.13-8.12-1.84-.89-2.7-2.83-3.58-4.53C232,130.06,236,133.66,240.47,136.42Zm4.29,9.91a157.13,157.13,0,0,1-16.33-11.16l-.88-2.91c4.82,2.87,9.2,6.43,14.19,9C243.73,142.15,243.95,144.59,244.76,146.34Zm0,2.72c.13.74.41,2.24.55,3-5.55-3.82-11.28-7.42-16.48-11.72-.33-.76-1-2.29-1.33-3.06C233.81,140.19,239.19,144.91,244.72,149.06Zm-16.79-7c6.21,3.67,11.68,8.43,17.74,12.33-4.77,5.32-10.95,9.52-18,11.07C227.56,157.65,227.66,149.85,227.93,142.05Zm16.67-3.22c-2-12.43-4.72-24.75-6.52-37.22a37.09,37.09,0,0,1,15,21.54,36.65,36.65,0,0,1-5.86,29.26A98,98,0,0,1,244.6,138.84Zm-10.23-36.18c0-4.13,4-6.39,5.94-9.69C240.64,97.26,236.64,99.56,234.37,102.65Zm-7.47,54.71c-.15,3.29.38,6.85-1.44,9.78-.37-12,.1-24.06.33-36.07l.94-2.54C227.27,138.12,226.78,147.75,226.9,157.36ZM222.74,34.07,225.59,32c1.32,1.8,2.65,3.59,4,5.4-4.57,5.39-7.63,11.82-12.13,17.25.77-5.2,4-9.64,6.64-14.06L221.47,38q-1.27,2.28-2.46,4.6A33,33,0,0,1,211.29,34c3.32.49,4.44,4,6.34,6.27,1.05-1.64,2.18-3.22,3.28-4.83,1.15,1.54,2.34,3,3.6,4.49l1.58-4.35C225,35.07,223.85,34.58,222.74,34.07Zm-8,8.33c3.91-1.86.21,4.08,0,0Zm4.56,2.54c-.61,1.38-1.23,2.76-1.82,4.15l-3.32-2a14.13,14.13,0,0,1-4.26,4.71C210.07,46.71,215.26,45.5,219.3,44.95Zm-3.16,6.64q-2.75,1.05-1.54-1.61C216.45,49.3,217,49.84,216.13,51.59Zm-1.24,2.15c.35,4.69-1.86,8.92-3.22,13.26q-2.72,1.13-5.44,2.18C210.45,64.82,212.11,59,214.89,53.74ZM212,70.11c4.17.55-2.21,3.55,0,0Zm-3.17,5.63c3.54,6.59,3.31,14.6,6.08,21.57,2,4.42,1.21,9.92,4.61,13.75,1.87,2,3.42,4.21,2.9,7.07q-2.08-2.88-4.24-5.71c-2.75-4.45-3.25-9.8-5.46-14.48C211,90.59,207.62,83.48,208.81,75.74Zm13.07,56.57,1.47-2.39c.33,10.76-.09,21.53-.2,32.29a8.8,8.8,0,0,1-1.28,5C221,155.61,221.56,143.92,221.88,132.31ZM232.4,33.62q-2.7.59-1.67-2Q233.36,31,232.4,33.62Zm-1.69-6.73c.6,1.88-2.48,3.5-3.26,1.32-1.07-2.16,2.13-2.32,3.26-1.32-1.21-1.07.29-4.1,1.63-2.21C233.87,26,232.41,28.33,230.71,26.89Zm2.8,2.2c4.22.29-2,3.78,0,0ZM233,4.45c-.8,4-2.77,7.58-4.73,11.11C227.09,11.59,228.54,5.66,233,4.45Zm-5.2-1c-.7,4.09-.69,9.65-4.74,11.92C223.1,11.22,223.47,5.33,227.81,3.44ZM218.5,14.14c.61-4.05,1.38-8.4,4.21-11.56C223.19,6.66,223.1,12.49,218.5,14.14ZM220.5,2c-1,3.79-1.45,8.18-4.94,10.62C216.55,8.91,216.27,3.61,220.5,2Zm-3.86-.82c0,3.64-1.5,7-2.41,10.49C214.81,8.11,213.74,3.88,216.64,1.15Zm-8,23.52c1.18-1.46,1.83-3.59,3.76-4.26a5.32,5.32,0,0,1,1.71,4.1c1.59-.32,3.2-.56,4.82-.73l-1.7-2.55q2.29.38,4.58.69c-2.27-4.3-7.25-3.17-11-2,.47-1.94,1-3.86,1.62-5.77,3.52.62,7,1.33,10.55,2a55.63,55.63,0,0,1,3,7.63A30.79,30.79,0,0,1,224,30.4c-2.26,1.76-4.68,3.32-6.92,5.11C216.21,30.73,213.36,26.32,208.62,24.68Zm-2.76,37.37a67.72,67.72,0,0,0,5.49-7.42,39.65,39.65,0,0,1-5.42,11.75c-2-2.66-5.61-4.15-6.2-7.67A42.55,42.55,0,0,1,205.87,62.05Zm-8.76,2.45c1.77-.46,2.42.2,1.91,2Q196.42,67.08,197.1,64.51Zm-16.49-1.38c-2.5-1.19-4.86-2.61-7.23-4,1.15-1.83,2.23-3.7,3.29-5.58a53.62,53.62,0,0,0,5.54,5.43,60.87,60.87,0,0,0-5.13-8.84c7,1.6,13.55,7.18,13.59,14.86A40.39,40.39,0,0,0,180.62,63.13Zm2.48,24.42c-5-1.2-7.54-6.16-7.95-10.9,1.17-4.18,3.54-8.65,8-9.91,4.16-.69,9.18,1,10.42,5.43-2.93-1.11-5.67-2.61-8.52-3.88-2.5,1.4-5.71,2.27-6.83,5.22-.92,3.66-1.08,9,3,10.78,3.23,2.26,7.23-.56,10.67,1C189.14,86.3,186.15,89.11,183.09,87.55Zm3-3.84c-4.48.76-7.66-4.13-6.42-8.19.51-4.43,5.57-4.78,9-4.18C188.66,75.35,191.48,82.23,186.06,83.71Zm7.47,1.45-2.41-2.3a21.58,21.58,0,0,0,.4-8.32,13.24,13.24,0,0,0,5.16-5c2.21,2,4.69,3.66,7.06,5.49.61,2.35.52,4.82.76,7.23C200.86,83.31,197.17,84.12,193.53,85.16Zm6.4-21.66c3.14,2.54,5.25,6,7.32,9.42C202.69,72.13,201.36,67.21,199.94,63.5Zm5.94,17.64c-.83-2.54-.91-5.16.79-7.37a128.32,128.32,0,0,0,14.73,47.93c-4.58-1.77-5.43-7.2-7.66-11C210.34,101.07,206.66,91.37,205.88,81.13Zm12.71,85.43c-1.68-2.88-1-6.2-.93-9.34.4-8.71-.16-17.45.59-26.14.25-.59.75-1.78,1-2.38C219.4,141.3,219.38,154,218.59,166.56Zm-1.36-39.22c-.33,11.22-.38,22.45-.65,33.69a17.2,17.2,0,0,1-1.25,5.69c-.91-13.91-.07-27.9.31-41.83ZM200.82,123c-2.27,9.87-3.64,19.93-6.19,29.74a39.52,39.52,0,0,1-6.49-25.85c1.85-10.17,7.43-20.09,16.62-25.28C204,108.84,202.09,115.84,200.82,123Zm6.47-24.32c2.37,4.61,3.44,9.73,5.38,14.54,1.27,2.71.74,5.69.64,8.56-3.83,3.64-8.32,6.45-12.59,9.52C203.32,120.49,204.27,109.36,207.29,98.67Zm6.32,29.93c-.21.66-.63,2-.84,2.63-4.75,3.27-9.36,7-14.81,9C202,134.94,208.42,132.5,213.61,128.59Zm-1.24,12.77c-5.66,3.21-10.49,7.74-16.44,10.43l1.34-2.59c5-4.28,10.72-7.66,16.31-11.11Zm.66,1.16c-.13,7.55-.17,15.11-.36,22.66a38.58,38.58,0,0,1-17.1-10.72C201,150,207.51,146.95,213,142.52Zm-.61-6.22a101.08,101.08,0,0,1-15.28,10.16l1.55-3.64c4.75-3.59,10-6.39,15-9.71Zm-12.63-.52c3.08-5.37,9.06-7.84,14-11.08C211.63,130.58,204.56,132.43,199.79,135.79Zm5.41-39.43,3.29.15c-3.08,3.45-7.67,4.94-10.82,8.31-14.33,13.6-14.85,39-.73,52.94,6.92,7.19,17.27,11.35,27.27,9.9,12-.79,22.34-9.3,27.73-19.71a39,39,0,0,0-1.44-36.08c-2.23-5.17-8-7.51-10.31-12.61,9.62,3.68,15,13.79,17.11,23.34,1.68,10.58.81,22.26-5.81,31.12-7.74,12.48-23.55,19.65-38,16.4-16.74-3.52-29.5-19.62-29.58-36.61a42.84,42.84,0,0,1,6.72-24.6C193.91,103.24,199.64,99.53,205.2,96.36Zm46.45,61.86q-2.28-1.32.29-2.72C253.4,156.39,253.3,157.3,251.65,158.22ZM233.9,183l-2.74,1.26c-.06-5-2.83-10.25.36-14.77C233.77,173.58,235.16,178.4,233.9,183Zm.45-13.9,2.84.69c.89,4.77,1.91,9.7.9,14.54C233.92,180.63,235.54,174.11,234.35,169.12Zm.8,17.68A147.64,147.64,0,0,0,237,203l-3.21,2.67c-3.32-5.75-1.48-12.79-2.55-19.12Zm1.34-.49,3.54.55a125.15,125.15,0,0,0,2.64,16.23,2.82,2.82,0,0,1-3.9.52C237.33,198,237.43,192.06,236.49,186.31Zm4.69-.58,3.78-1.34c.1,6.57,3.73,13.25,1.21,19.67l-2.82-2.89C242.93,196,241.9,190.88,241.18,185.73Zm2.38-3.79-3,.19a130,130,0,0,0-2.4-14.82l3.65-.7A48.62,48.62,0,0,1,243.56,181.94Zm-14.31,1.88-3.19.48c0-4.36-.18-8.72,0-13.07C230.13,174,228.94,179.59,229.25,183.82Zm-4.73.42-3.78-.16a73.51,73.51,0,0,1,1.35-12.67C225.89,174.59,223.71,180,224.52,184.23ZM221,186.57c1.68.76,4,1.14,4.16,3.38-.05,5.2-.05,10.4.07,15.6-1.81-.54-5.38-.34-4.63-3.27C220.83,197.05,220.68,191.81,221,186.57ZM214.22,184l-3.26-.2c-1-4.44.74-8.84,1.37-13.2C216.62,173.63,214.3,179.57,214.22,184Zm-11.71-16.45,3.36,2.13c-.68,4.69.93,10.43-3.4,13.74C199.08,178.76,202.84,172.81,202.51,167.54Zm-3.31,14.22-3.58-.74c1.84-5.47.37-12.24,4.79-16.62C202,170.13,200.28,176.08,199.2,181.75Zm-.13,3.32c-.85,6.12-1.48,12.27-2.93,18.29l-3.95-.83c.74-5.91,2.25-11.73,2.48-17.7Zm1.46.05,3.84,1.51c-.67,5.77-1.44,11.53-2.61,17.23l-3.82.38C197.73,197.8,199,191.37,200.53,185.13ZM203.1,202c.83-5.24,2-10.44,2.33-15.75l3.81.51c-.08,6.26-1.49,12.39-1.68,18.64C206,204.5,202.22,204.63,203.1,202Zm2.65-19.08c.45-4,1.12-8,1.21-12l3.51.49a40.91,40.91,0,0,1-1.1,11Zm-18.05-22.22c-3.3-2.14-1.06-4.92.63-7.3C190.51,155.73,189.45,158.41,187.69,160.66ZM82,104.39q.81,1.93,1.64,3.86c-10.94,1-21.79,3-32.73,3.89-2.82.23-4-2.6-5.15-4.6C57.85,106.24,69.94,105.29,82,104.39Zm-40.79.16c-.23-1-.7-3.07-.94-4.08,10.37-1.11,20.8-.71,31.18-1.62,1.76,0,3.63-.55,5.32.11q1.25,2,2.38,4c-6.8-.1-13.54,1-20.33,1.17C53,104.22,47.05,106.23,41.25,104.55Zm37.51,6.09c3.84-.26,9.72-2.93,11.09,2.37-8.23,1.59-16.53,2.78-24.79,4.18-3.67.59-7.42,2-11.16,1.1a38.59,38.59,0,0,1-2.8-3.48C60.13,112.36,69.6,112.39,78.76,110.64ZM90,114.86c2.79-.73,5.28,1.06,7.75,2.06-9,3-18.56,4.13-27.74,6.6-4.07,1.38-9,.68-11.71-2.88C68.78,118.32,79.44,116.9,90,114.86ZM69.86,125.58c10.61-2.77,21.47-4.39,32.05-7.31.83,1.18,1.66,2.36,2.48,3.56-9,2.61-18.13,4.8-27.09,7.56a8.89,8.89,0,0,1-8.14-2C69.34,126.94,69.69,126,69.86,125.58ZM102,124.41a51.31,51.31,0,0,1,7.76-2.26l2.24,3.57c-8.73,2.1-17,5.63-25.7,8-2.86.17-7,1.11-8.32-2.3C85.83,128.55,94.15,127.26,102,124.41Zm13.75,1.71a27.21,27.21,0,0,1,4.69,1.05c-4.42,4.14-10.75,4.73-16.06,7.22-5,1.44-9.63,4.81-15,4l-1.51-3C97.2,132.42,106.44,129.17,115.74,126.11Zm8,2.87c2-1.24,3.4,1,4.92,2-8.19,3.81-16.69,6.88-24.78,10.9-3.07,1.6-6.28,0-9-1.51Q109.25,134.65,123.69,129Zm-2.62,7.36c4.77-2,9.25-4.57,14.12-6.33l2.33,3.4c-10,3.65-19.55,13.13-30.92,9.66C111.06,140.1,116.24,138.58,121.08,136.35Zm21-3.5,4.22,1.88c-6.24,3.26-12,7.47-18.69,9.89-2.38,1-4.9.39-7.24-.32C127.31,139.94,134.81,136.58,142.08,132.85Zm10.15.32a31.83,31.83,0,0,1,5.4,1.2c-6.3,4-11.84,10.29-19.67,11.06l-4.05-1.51C140,140.23,146,136.52,152.24,133.16Zm10.08-.15a29.34,29.34,0,0,1,5.65.77c-4.57,3.3-8.25,7.72-13,10.74-3,2.09-6.81,1.34-10.15.62C150.71,141.18,156.67,137.32,162.32,133Zm8.1.82c1.57-1.49,3.78-1.29,5.77-1.51-3.23,4.58-7.47,8.33-11.54,12.14-2.06,2.48-5.39,1.23-8.09,1C161.14,141.55,165.69,137.57,170.42,133.84Zm4.35-2.4c2.32-3.18,5.2-6.28,9.12-7.37C182.32,128,179.5,131.84,174.77,131.44Zm4.55.56,3.28,2c-4,4.2-7.74,8.68-12.17,12.44-1.31-.44-2.61-.86-3.91-1.28C170.5,140.52,175.84,137.13,179.31,132Zm2.79,4.58c3.58,4.47-2.28,10.22-7.08,9A58.51,58.51,0,0,1,182.11,136.58Zm.66,6.95c4.19,0-1.84,3.8,0,0Zm-.3-21.29c-4.91,4-9.71,9.42-16.63,9.12,6.09-5.24,13-9.59,19.43-14.37C184.54,118.81,184.13,121,182.47,122.23Zm-12.4,3.8c-4.28,2.84-8.64,7.21-14.28,5.77,3.84-3.54,8.55-5.9,13-8.59,4.51-2.45,8.42-6.39,13.79-6.86C179.29,120.64,174.12,122.64,170.07,126Zm-8.15-.75c-5.35,2.73-10.14,8.46-16.79,6.24,4.61-2.84,9.62-4.95,14.31-7.64,5.37-2.63,10.39-6.09,16.24-7.61C172,120.45,166.55,122.34,161.92,125.28Zm6.83-8.94a17,17,0,0,1-4.67,3.47c-7.2,3.36-14.23,7.07-21.25,10.77a37.69,37.69,0,0,1-4.66-1.58c7.83-4.14,16.21-7,24.21-10.78A20.24,20.24,0,0,1,168.75,116.34Zm-6.82-.38c-4.84,3.63-10.83,5.13-16.26,7.62-5.47,2.05-10.9,6.39-17.06,4.1,5.26-3,11.21-4.48,16.74-6.91C150.74,118.75,156.05,116,161.93,116Zm-8.43-.28c-6.38,3.49-13.56,5-20.25,7.82-4.68,1.78-9.74,4.71-14.81,2.46,4.76-3.63,11.15-3.31,16.47-5.79C141.06,118.54,146.94,114.95,153.5,115.68Zm-8.68-.91c-8.81,3.34-17.87,6.09-26.89,8.84-2.17.91-4.1-.33-5.62-1.78,8.39-2.64,17-4.69,25.33-7.42C140,113.49,142.46,114.52,144.83,114.77Zm-8.65-1.44c-5.67,1.44-11.15,3.53-16.88,4.73-4.82,1.12-10.38,3.69-14.82.15,8-2.33,16.08-4.22,24.21-6C131.24,111.3,133.72,112.76,136.18,113.33Zm-8.83-3.6c-6.71,4.11-15.06,3.8-22.41,6.25-3,1.34-5.86-.14-8.38-1.78,8.12-2.31,16.53-3.25,24.72-5.22C123.32,108.56,125.34,109.45,127.34,109.73Zm-5.75-2.61c-5.35,1.89-11.08,1.8-16.58,3-3.81.59-7.45,2.09-11.3,2.39-1.58-.51-2.48-2-3.49-3.16,9-1.51,18.1-2.07,27-4Zm-5.89-3.23c-4.73,1.19-9.64,1.06-14.4,2-4.65.55-9.33,1.88-14,1.13l-2.54-3c9.09-.92,18.29-1,27.29-2.64A17.76,17.76,0,0,1,115.71,103.89Zm-4-5.27a23.65,23.65,0,0,1-10.7,2.32c-5.43.15-10.81,1-16.22,1.3-2.41.09-3.75-2-5.28-3.49,9-.83,18.1-.78,27.15-1.23C108.38,97.38,110,98.21,111.68,98.62Zm-6.54-6,1.41,3.27c-9.41-.62-18.82,1.06-28.18.1l-2.43-2.44C85.43,91.08,95.43,93,105.14,92.64Zm-31,.22,1.5,4.06c-10.8-.23-21.55.68-32.32,1.27a12.17,12.17,0,0,1-4.9-1c-.17-1.13-.51-3.39-.68-4.52C49.83,92.37,62,92.71,74.1,92.86Zm-70.92,0c10.62-.16,21.24-.36,31.87-.46.11,2,.23,4,.41,6-11-.23-22,1.59-33,.11A55.84,55.84,0,0,1,3.18,92.85Zm1,8.59c11,.19,22-.66,33-1.5.33,2,.7,4,1,6.07-10.84.36-21.67,2.44-32.53,1.63C5.21,105.58,4.71,103.51,4.23,101.44Zm6.31,16a16.86,16.86,0,0,1-2.9-7c11.82-.22,23.5-2,35.26-3,.53,1.87,1.05,3.74,1.56,5.62C33.19,114.82,21.8,115.76,10.54,117.39Zm2.5,2c11.76-1.67,23.67-2.56,35.28-5.14.66,1.94,1.38,3.86,2.09,5.78-10.91.65-21.46,4-32.32,4.89C15.08,125.6,11.25,122.55,13,119.43Zm4.67,8.45c12.23-2.52,24.67-4.08,36.76-7.28,2,1.14,3.07,3.38,4.51,5.14-10.43,2.53-20.93,4.73-31.39,7.08A8.58,8.58,0,0,1,17.7,127.89Zm8.49,7.58c13.1-2.66,26-6.13,39.07-9,1.26,1.74,2.59,3.42,4,5-11.46,2.84-22.81,6.06-34.24,9C31.15,141.27,28.25,138.3,26.19,135.47Zm9.51,10.17c-.05-.81-.17-2.44-.23-3.25,12.83-3.15,25.69-6.28,38.26-10.38,1.24,1.56,2.5,3.11,3.77,4.66C66.15,139.9,54.92,143.51,43.66,147,40.92,148.31,38.24,146.58,35.7,145.64Zm7.53,3.77c13.38-4.95,27.38-8,40.73-13.06,1.28,1.4,2.58,2.8,3.86,4.2-10.76,3.54-21.25,7.87-32,11.35C51.56,153.67,46.63,152.22,43.22,149.41Zm12.34,4.76c12-4.29,24.27-8,35.8-13.41,1.57,1.47,3.15,2.91,4.73,4.37-8.51,3.35-17.07,6.61-25.41,10.38C65.82,157,59.52,158.29,55.56,154.17Zm17.68,2.49c8.51-3.91,17.4-7,25.79-11.16,3.59-2.06,7.41.76,11,1.33-6.22,3.44-12.7,6.36-19.11,9.41C85.53,158.59,78.31,161,73.24,156.66Zm33,1.29c-4.33,2.17-9.21,1.79-13.62.11,6.71-4.46,14.41-7.09,21.4-11.05,3-2.09,6.27.76,9.33,1.29C117.48,151.12,112.1,154.92,106.29,157.95Zm18.88-.8c-3.75,3.14-9.38,3.06-13.43.56,5.41-5.05,12.71-7.43,18.67-11.79a40.59,40.59,0,0,0,7.1,2.66A95.59,95.59,0,0,0,125.17,157.15Zm11.13,1.74a11,11,0,0,1-8.75-1.35c4.63-3.61,9.49-6.93,14-10.71a53.87,53.87,0,0,0,7.64,2C145,152.3,141.09,156.24,136.3,158.89Zm4.88.06c2.94-5.26,8.52-8.06,12.68-12.2,1.82.91,3.66,1.8,5.51,2.67-4,3.14-6.61,8.06-11.59,9.72A42.22,42.22,0,0,1,141.18,158.95Zm19.31-1.23c-2.35,1.06-5,1-7.52,1.54a45.74,45.74,0,0,1,10.38-11.5c1.87-1.74,3.86.51,5.28,1.65C166,152.23,163.6,155.38,160.49,157.71Zm6,1.74L163,157.58c3.62-3.48,6.37-8.32,11.11-10.35l3.7,1.38C173.77,152.06,172.39,158.52,166.45,159.46Zm6.57-.83c1.8-4.27,4.72-7.89,7.36-11.66l3.1,2.24a95,95,0,0,0-6,9.36Zm6.26.43c1.79-3.82,3.56-8,7.13-10.46C188.18,153.27,184.66,159.56,179.28,159Zm6.47,7.09c-8.85,3.59-14.64,12-18.28,20.46-3,6.56-5.14,14.63-12.16,18.1-3.88,2.5-10.67,1.32-11.66-3.74-.66-3.32,2.62-5.19,4.78-7,2.23,1.63,3.66,3.8,3.3,6.64-1.58-1.09-3.15-2.19-4.75-3.23q-.19,2.88-.13,5.77c6.39,1.5,11.92-3.81,14.09-9.34,4.08-9.73,9-19.72,17.68-26.18a27.23,27.23,0,0,1,15.15-6C191.7,164.07,188.52,164.83,185.75,166.14ZM195,161c1.8,2,2.77,4.54,1.78,7.17-1.45,4.52-.7,10.16-4.68,13.45C190.73,174.7,192.85,167.53,195,161Zm-5.19,22.52,4,.35c-.6,5.82-1.73,11.56-2.71,17.32l-4.47-.08C187.6,195.22,189.07,189.43,189.82,183.53Zm-7.7,38.74c.73-5.84,2.5-11.46,3.46-17.25l5,.17c-1.38,6.15-2.37,12.37-3.42,18.58Q184.64,223,182.12,222.26Zm6.64,2.14c.32-6.12,1.79-12.12,2.78-18.17l4.52.21c-1.27,6.3-1.36,12.78-2.76,19.07Q191,225,188.76,224.4Zm6.08,1.8c.14-6.69,1.78-13.24,1.86-19.92l5,1.75a79.56,79.56,0,0,1-2.27,18.52ZM202,228c-2.16-6.58,1.29-13.41.59-20.19l5,.27c0,6.06-1.33,12-1.35,18Zm10.47,0c-1.75,0-3.5.09-5.25.09-.09-6.55,1-13,1.46-19.52l4.65,1C213.37,215.7,212.92,221.86,212.52,228Zm-3.33-23c-.16-6.16.66-12.24,1.38-18.34l3.64.29c-.16,6.11-.64,12.22-.5,18.33Zm9.73,23.16-5,.06c-.06-6.49.13-13,.19-19.44l5.3.71C219.14,215.67,219.32,221.91,218.92,228.13Zm.47-23-4,.28c-.19-6.26-.15-12.53.28-18.78l3.8.49C219.8,193.11,219.39,199.13,219.39,205.13Zm0-20.8c-5.23.81-3.51-5.17-3.47-8.35-.5-2.45,1.7-3.54,3.36-4.75C219.68,175.56,220.15,180,219.35,184.33Zm4.11,45-3.5-1.87c.53-6,.38-12.09.7-18.14l4.71.12c.3,5.6.76,11.18.87,16.8C225.36,227.26,224.43,228.29,223.45,229.28Zm6.07-41.3c1.11,4.73.81,9.66,1.65,14.44.51,2.65-2.19,3.61-4.37,3-.37-6.3-.08-12.6-.4-18.89Zm-1.65,40.58c-.86-6.4-.46-12.88-1.31-19.27l5.92.44a104.78,104.78,0,0,0,.87,18.47Q230.61,228.42,227.87,228.56Zm9.2.12c-1-.93-2.08-1.83-3.12-2.73.5-5.53-.57-11-.51-16.52l4.24-1.28c.74,6.58,1.59,13.16,2.37,19.73C239.31,228.06,237.82,228.47,237.07,228.68Zm3.3-5.06c.21-5.28-.95-10.44-1.42-15.66l4.57-.2c.52,6.49,1.68,12.9,2.59,19.34C243.44,227.43,240.92,226.55,240.37,223.62Zm7.22,2.61c-1.23-6.49-2-13.05-2.86-19.59a35.81,35.81,0,0,1,3.88.88A97.36,97.36,0,0,1,251.55,226Zm10.13-3.11c-1.19,1.1-2.38,2.21-3.55,3.33-2.15-6.66-2.53-13.73-4.12-20.53q2.36-.81,4.74-1.61C255.26,210.65,256.81,216.83,257.73,223.11Zm-4.88-22.35-3.53.12c-.79-5.42-2.12-10.75-2.86-16.18l4.22-1.78C251.59,188.83,253.66,194.72,252.84,200.76ZM250,178.39l-2.52,3c-3.72-4.43-2.53-10.74-4.25-16,1.22-1.29,2.44-2.59,3.69-3.85C248.07,167.12,249,172.75,250,178.39Zm26.3,7.11c3,6.22,5.79,13.07,11.67,17.2,3.44,2.08,5.56-1.87,7.2-4.25-2,.12-3.9.32-5.84.55l.53-2.79,3-2.35a25.15,25.15,0,0,1,4,2.7c.89,3.67,0,7.83-3.61,9.66a13.43,13.43,0,0,1-9.89-3c-9.47-9.55-10.9-24.64-21.6-33.21-3.54-3.64-8.22-5.65-12.77-7.67-.16-.7-.47-2.12-.64-2.82C261.65,162.31,270.66,173.88,276.29,185.5Zm-20.1-27.91c-1.75,1-3.42-1.9-2.12-3.16C255.71,153.55,257.59,156.37,256.19,157.59Zm-.55-9.34c3.37,2.42,5,6.33,6.64,10C257.31,157.84,255.37,152.58,255.63,148.25Zm2.6-.62,2.18-2.25c2.4,4.25,6.11,7.68,7.92,12.27C262.28,158.66,261,151.39,258.23,147.63Zm12.34,9.12c-2.66-2.82-4.55-6.25-7-9.25l3.21-2c3.33,4.05,6.77,8,10,12.14C274.71,157.54,272.51,157.64,270.57,156.75Zm9.7,1.73c-4.38-2.81-6.75-7.73-10.39-11.33l4.43-2.1c3.68,4.84,8.34,8.79,12.37,13.32C284.55,158.45,282.42,158.49,280.28,158.47Zm6.93-2.13c-3.1-2.81-5.88-6-8.69-9.05,1.87-.54,3.76-1,5.64-1.49a130.7,130.7,0,0,1,13.06,11.57C293.93,157.69,290,158.85,287.21,156.35Zm11.52,0c-3.49-2.78-6.77-5.81-10.16-8.72q2.9-1.18,5.83-2.32c5.42,4.8,11.82,8.45,16.9,13.6C307,159.28,302.26,159.11,298.73,156.3ZM317.94,159c-7.35-1.78-12.63-7.55-18.56-11.83a12.11,12.11,0,0,1,12.2,1.52c4.75,3.64,10.49,5.94,14.67,10.31A45.94,45.94,0,0,1,317.94,159Zm-4.51-10.86c2.26-1,4.76-4,7.33-2.25,7.87,4.66,16.11,8.64,23.91,13.37C332.78,162.78,323.08,153.36,313.43,148.14Zm31.4,9.06c-6.65-3.76-13.35-7.42-20.14-10.91,2.76-.56,5.39-1.66,8.17-2.12,10.18,4.86,20.43,9.57,30.64,14.36C357.39,161.19,350.74,159.46,344.83,157.2Zm14.94-2.31c-6.75-3.51-13.81-6.35-20.63-9.71a61.93,61.93,0,0,1,6.58-3.43c8,3.16,15.81,6.64,23.78,9.8,4.09,1.64,8.36,3,12.14,5.3C374.7,160.8,366.39,158.22,359.77,154.89Zm22.35-.4c-10.52-4.36-21.15-8.48-31.79-12.58,1.92-1.33,3.82-2.69,5.68-4.1,12,5.09,24.52,8.7,36.71,13.25A9.07,9.07,0,0,1,382.11,154.48Zm21.37-6.5c-3.53.85-7.24,1.88-10.85.81-10.52-3.68-21.12-7.12-31.63-10.83,2-1.43,3.79-3.37,6.06-4.46q18.62,6.19,37.58,11.26Zm1.17-5.4c-11.51-2.82-22.67-6.89-34.14-9.86,1.67-1.43,3.35-2.85,5-4.31,12.85,3.41,26,5.73,38.66,9.87C411.81,140.9,408.35,143.42,404.65,142.58Zm8.82-7.24c-11-2.39-21.79-5.69-32.89-7.6,1.29-1.83,2.57-3.66,3.79-5.54,12,3.29,24.47,4.32,36.44,7.67C419.94,133.12,416.93,135.78,413.47,135.34Zm6.28-8.17c-10.12-2-20.3-3.75-30.39-5.94q2-3,4-5.92c10,2.07,20.21,3.26,30.33,4.8,1.38.66,4.65.37,4.25,2.62C428.76,127.28,422.87,127.65,419.75,127.18Zm11.92-8.64c-3.12.83-6.28-.37-9.38-.7-8.75-1.78-17.72-2-26.43-4,1.29-1.89,2.53-3.8,3.75-5.72,11.88,2.62,24.17,2,36.1,4.33C435,114.79,434.09,117.39,431.67,118.54Zm2-8.8c-10-1.51-20.23-1.43-30.2-3.18q1.63-2.93,3.08-6c10.68.29,21.31,1.36,32,1.69C440,105.68,437.88,110.74,433.63,109.74ZM441,99.85c-11.09-.16-22.22-.25-33.23-1.6.12-2,.24-3.89.36-5.84,10.67.17,21.35.33,32,.32C442.79,94.5,442,97.4,441,99.85Z" style="fill:#eb9532"/></svg>