<svg id="Layer_1" data-name="Layer 1" xmlns="http://www.w3.org/2000/svg" viewBox="0 0 222.86 301.03"><title>ikonlar</title><path d="M215.82,19.32c-2.24-.91-55.48-21.73-96.91.24C86.08,37,28.46,23.9,13.74,20.11V8.85A4.89,4.89,0,1,0,4,8.85V23.5a.41.41,0,0,0,0,.19c0,.07,0,.12,0,.17V292.17a4.89,4.89,0,1,0,9.78,0V176.78c11.09,2.77,35.3,8,60.42,8,17.37,0,35.16-2.5,49.33-10,37.38-19.82,88.21,0,88.71.24a4.89,4.89,0,0,0,6.7-4.56V23.86A4.89,4.89,0,0,0,215.82,19.32Z" style="fill:#3e5b9f"/><path d="M8.85,301A8.86,8.86,0,0,1,0,292.17V8.85a8.85,8.85,0,1,1,17.7,0V17c16.36,4,69.43,14.91,99.35-1,43.34-23,97.81-1.4,100.25-.41a8.9,8.9,0,0,1,5.56,8.21V170.41a8.85,8.85,0,0,1-12.11,8.24l-.11,0c-.44-.17-49.93-19.14-85.3-.38-13.11,7-30.33,10.48-51.18,10.48-22.15,0-43.41-3.91-56.46-6.9V292.17A8.86,8.86,0,0,1,8.85,301ZM7.92,24.32V292.17a.93.93,0,0,0,.93.93.94.94,0,0,0,.93-.93V171.71l4.92,1.23c11.75,2.93,35.09,7.84,59.46,7.84,19.54,0,35.52-3.21,47.47-9.55,38.36-20.34,89.3-1,92,.05h0a1,1,0,0,0,.89-.09,1,1,0,0,0,.4-.77V23.86a.93.93,0,0,0-.58-.85h0a152.28,152.28,0,0,0-32.81-8.21c-16.37-2.25-40.2-2.63-60.76,8.27-14.65,7.77-35.35,10.69-61.53,8.68a283.44,283.44,0,0,1-46.48-7.79l-3-.77V8.85a.94.94,0,0,0-.93-.93.93.93,0,0,0-.93.93L8,23.68A4.14,4.14,0,0,1,7.92,24.32ZM.37,22.16l0,.06Z" style="fill:#3e5b9f"/></svg>