<svg id="Layer_1" data-name="Layer 1" xmlns="http://www.w3.org/2000/svg" viewBox="0 0 350.98 232.97"><title>ikonlar</title><path d="M210.41,40.57A391.08,391.08,0,0,0,111.5,7.24C52.61-4.23,7.19.72,2.3,3.34A4.19,4.19,0,0,0,.08,7.89c.2.93,1,3.12,4.35,3.38C91,17.81,221.07,88.54,230,199.32l8-.64,18.57-31.44-12.39-36.38,36.54,11.9,27.52-21,5.75-5.61A380.65,380.65,0,0,0,210.41,40.57Z" style="fill:#684272"/><path d="M345.37,177.12,315,155.94l.22-37a3.68,3.68,0,0,0-5.9-3L279.73,138.3l-35.17-11.66a3.68,3.68,0,0,0-4.63,4.7l12.15,35-21.95,29.84a3.67,3.67,0,0,0,1.3,5.48,3.74,3.74,0,0,0,1.73.39l37-.73,21.59,30.09a3.69,3.69,0,0,0,3,1.55,3.54,3.54,0,0,0,.6-.05,3.71,3.71,0,0,0,2.92-2.56l10.75-35.46,35.3-11.25a3.68,3.68,0,0,0,1-6.53ZM305,188.47a3.72,3.72,0,0,0-2.4,2.44l-9.15,30.17L275,195.45a3.69,3.69,0,0,0-3-1.52H272l-31.54.62,18.67-25.39a3.68,3.68,0,0,0,.53-3.4L249.33,136l29.94,9.93a3.7,3.7,0,0,0,3.37-.57l25.14-19-.18,31.52a3.63,3.63,0,0,0,1.58,3l25.87,18Z" style="fill:#684272"/></svg>