<svg id="Layer_1" data-name="Layer 1" xmlns="http://www.w3.org/2000/svg" viewBox="0 0 233.13 233.3"><title>ikonlar</title><path d="M162.55,1A10.13,10.13,0,0,0,151.43,2.6,10.14,10.14,0,0,0,148,13.18a111.85,111.85,0,0,1,2.91,34.13c-3.44,55.56-48.15,100-103.71,103.44a124,124,0,0,1-34.13-2.64,9.82,9.82,0,0,0-10.58,3.7A10.65,10.65,0,0,0,.89,162.93,121.56,121.56,0,0,0,111.48,233.3a55.31,55.31,0,0,0,6.61-.26c61.12-3.17,111.38-53.71,114.82-114.82A120.71,120.71,0,0,0,162.55,1ZM145.08,203.4a29.77,29.77,0,0,1-5.82,2.12,3.35,3.35,0,0,1-1.59.27,5.58,5.58,0,0,1-5-4,5.29,5.29,0,0,1,3.7-6.61c1.85-.53,3.17-1.06,4.76-1.59a5,5,0,0,1,6.88,2.91A5.37,5.37,0,0,1,145.08,203.4Zm61.64-69.85c-5.29,24.08-19.84,44.71-40.22,59a5.35,5.35,0,0,1-2.91.79,5.19,5.19,0,0,1-4.5-2.38,5.42,5.42,0,0,1,1.32-7.41,85,85,0,0,0,36-52.38,5.39,5.39,0,0,1,6.35-4A5.25,5.25,0,0,1,206.73,133.56Z" style="fill:#684272"/></svg>