<svg id="Layer_1" data-name="Layer 1" xmlns="http://www.w3.org/2000/svg" viewBox="0 0 180.09 233.3"><title>ikonlar</title><path d="M110.51,225.11H94.14v-68.4L143.84,107c.46,0,.91,0,1.37,0,8.63,0,17.39-3.81,24-10.46,7.41-7.41,11.27-17.47,10.31-26.91A4.09,4.09,0,0,0,175.9,66a28.8,28.8,0,0,0-2.88-.14c-8.63,0-17.39,3.81-24,10.46S138.44,92,138.55,100.73L94.14,145.14v-1.89a4.09,4.09,0,1,0-8.19,0v81.86H69.58a4.09,4.09,0,1,0,0,8.19h40.93a4.09,4.09,0,0,0,0-8.19Z" style="fill:#6dc497"/><path d="M21.36,50.18c-8.13,0-15.77,3.42-20.44,9.14a4.09,4.09,0,0,0,0,5.17c4.67,5.72,12.31,9.14,20.44,9.14s15.77-3.42,20.44-9.14a4.09,4.09,0,0,0,0-5.17c-4.67-5.72-12.31-9.14-20.44-9.14Z" style="fill:#6dc497"/><path d="M21.36,65.44A19.26,19.26,0,0,1,10,61.91a19.25,19.25,0,0,1,11.35-3.54,19.25,19.25,0,0,1,11.36,3.54,19.26,19.26,0,0,1-11.36,3.54Z" style="fill:#6dc497"/><path d="M56.76,44.35a4.1,4.1,0,0,0,5.18,0c6.08-5,9.7-13.08,9.7-21.72S68,5.88,61.94.92a4.09,4.09,0,0,0-5.18,0c-6.08,5-9.7,13.08-9.7,21.71s3.63,16.76,9.7,21.72Z" style="fill:#6dc497"/><path d="M179.17,121.74c-4.67-5.72-12.31-9.14-20.43-9.14S143,116,138.3,121.74a4.09,4.09,0,0,0,0,5.18c4.67,5.72,12.31,9.14,20.43,9.14s15.77-3.42,20.43-9.14a4.09,4.09,0,0,0,0-5.18Z" style="fill:#6dc497"/><path d="M118.16,106.77a4.1,4.1,0,0,0,5.18,0c6.08-5,9.7-13.08,9.7-21.71s-3.62-16.76-9.7-21.71a4.1,4.1,0,0,0-5.18,0c-6.08,5-9.7,13.08-9.7,21.71s3.63,16.76,9.7,21.71Z" style="fill:#6dc497"/><path d="M72.47,103.52a4.09,4.09,0,1,0-5.79,5.79l20.46,20.46,0,0,.27.24.15.11.17.13.18.11.17.1.18.09.18.08.18.07.2.07.18,0,.21,0,.21,0,.18,0,.4,0,.4,0,.18,0,.22,0,.2,0,.19,0,.19-.07.19-.07.17-.08.19-.09.15-.09.19-.12.16-.11.17-.12.21-.19.09-.08.08-.09.19-.21.13-.17.11-.15.12-.2.08-.15.1-.2.07-.16.07-.2c0-.06,0-.12.06-.18l.05-.2c0-.07,0-.13,0-.19s0-.15,0-.23,0-.11,0-.16,0-.27,0-.41V49.63a4.09,4.09,0,0,0-8.18,0v33.1L41.54,38.31c.11-8.68-3.68-17.64-10.44-24.4S15.7,3.46,7.07,3.46c-1,0-1.93,0-2.88.14A4.09,4.09,0,0,0,.53,7.26c-1,9.44,2.9,19.5,10.31,26.91,6.65,6.65,15.41,10.46,24,10.46.46,0,.91,0,1.37,0L86,94.3V117Z" style="fill:#6dc497"/></svg>