<svg id="Layer_1" data-name="Layer 1" xmlns="http://www.w3.org/2000/svg" viewBox="0 0 312.76 296"><title>ikonlar</title><path d="M148,46.22a7.81,7.81,0,0,0,7.8-7.81V7.81a7.81,7.81,0,1,0-15.61,0v30.6A7.81,7.81,0,0,0,148,46.22Zm0,0" style="fill:#fff"/><path d="M148,249.77a7.82,7.82,0,0,0-7.81,7.82v30.59a7.81,7.81,0,1,0,15.61,0V257.59a7.81,7.81,0,0,0-7.8-7.82Zm0,0" style="fill:#fff"/><path d="M65,76A7.81,7.81,0,1,0,76,65L54.39,43.35a7.8,7.8,0,1,0-11,11Zm0,0" style="fill:#fff"/><path d="M46.23,148a7.82,7.82,0,0,0-7.82-7.82H7.82a7.81,7.81,0,1,0,0,15.62H38.41a7.81,7.81,0,0,0,7.82-7.8Zm0,0" style="fill:#fff"/><path d="M65,220,43.35,241.62a7.8,7.8,0,1,0,11,11L76,231A7.81,7.81,0,0,0,65,220Zm0,0" style="fill:#fff"/><path d="M148,219.67A71.67,71.67,0,1,1,170.78,80.08c-.65.51-1.26,1.07-1.89,1.6-.47.42-1,.82-1.45,1.24-1.1,1-2.17,2-3.22,3.05-.21.21-.44.4-.63.59-1.25,1.26-2.44,2.56-3.62,3.89-.34.4-.68.84-1,1.24-.78.93-1.56,1.89-2.32,2.86-.4.51-.8,1.07-1.2,1.6-.65.9-1.3,1.79-1.93,2.71-.4.57-.78,1.16-1.16,1.73-.59.93-1.16,1.87-1.74,2.8l-1,1.76c-.58,1-1.13,2.06-1.66,3.1-.27.54-.56,1-.82,1.59-.71,1.43-1.36,2.89-2,4.36-.05.15-.13.29-.19.44-.68,1.62-1.29,3.28-1.88,4.94l-.52,1.6c-.36,1.16-.74,2.3-1.07,3.47-.17.65-.34,1.29-.49,1.94-.29,1.09-.55,2.18-.78,3.26-.15.69-.29,1.37-.42,2.06-.19,1.11-.38,2.19-.55,3.32-.1.66-.21,1.33-.29,2-.15,1.22-.27,2.42-.36,3.64-.06.57-.12,1.14-.16,1.73-.11,1.8-.19,3.59-.19,5.4s.08,3.62.19,5.41c0,.57.1,1.15.16,1.74.09,1.2.21,2.42.36,3.62.08.69.19,1.35.29,2,.17,1.11.34,2.21.55,3.32.13.68.28,1.35.42,2,.23,1.08.49,2.17.76,3.26l.51,1.94c.33,1.16.71,2.33,1.07,3.47l.52,1.6c.59,1.66,1.2,3.32,1.87,4.92.09.23.2.46.3.69.59,1.39,1.22,2.76,1.89,4.13.26.56.57,1.11.85,1.66.54,1,1,2,1.62,3,.34.61.7,1.22,1.06,1.81.56.94,1.13,1.85,1.72,2.77.38.59.76,1.18,1.16,1.75.63.92,1.28,1.81,1.93,2.69.4.55.8,1.09,1.22,1.62.76,1,1.54,1.94,2.34,2.88.34.42.69.82,1,1.22,1.16,1.33,2.36,2.63,3.62,3.89.21.21.44.42.65.61q1.57,1.57,3.26,3.07c.44.4.9.78,1.35,1.16.63.55,1.26,1.1,1.93,1.64A71.9,71.9,0,0,1,148,219.67Z" style="fill:#fff"/><path d="M225.47,60.71a87.29,87.29,0,0,0-38.64,9.19,87.28,87.28,0,1,0,0,156.2A87.22,87.22,0,1,0,225.47,60.71Zm0,158.95a70.49,70.49,0,0,1-34.73-9.14c-.38-.21-.78-.4-1.09-.53A71.53,71.53,0,0,1,189.56,86c.38-.18.74-.37,1.1-.56a70.52,70.52,0,0,1,34.81-9.17,71.67,71.67,0,1,1,0,143.33Z" style="fill:#fff"/></svg>