<svg id="Layer_1" data-name="Layer 1" xmlns="http://www.w3.org/2000/svg" viewBox="0 0 310.46 176.83"><title>ikonlar</title><path d="M307.84,49.37c-5-2.74-10.21-6.29-11.59-7.91,0-.34-.07-.72-.1-1.13-.61-7.19-1.74-20.49-30.08-32.58a14.84,14.84,0,0,0-3.24-4.47A12.2,12.2,0,0,0,250.23.73a17,17,0,0,0-8.12,5.21,40.72,40.72,0,0,0-11.87,2.92c-3.41,1.26-6.36,2.35-10.63,2.35-2,0-4.57-1.67-7.48-3.61C207.34,4.43,201.4.48,192.78.48c-9.69,0-16.39,3.16-22.88,6.21-8.92,4.21-17.35,8.18-35.15,4.62C113.43,7,79.37,15.12,66.82,22.65,55.3,29.57,42.36,50.35,28.37,84.44c-8.87,21.61-15.44,42-17,47.14l-9.86,9.85a5,5,0,0,0-1.11,5.42l10.73,26.82a5,5,0,0,0,4.67,3.16H31.85a5,5,0,0,0,0-10.06h-.34v-6.36c16-2,35.91-12.57,46.66-22.46,1.41-1.3,2.81-2.51,4.19-3.65a54.25,54.25,0,0,0,5.26,7.85c4.59,6.05,8.94,11.77,8.94,24.28,0,3.18,2.44,4.44,4.4,5.45.93.48,2.21,1.11,3.8,1.88,2.71,1.31,5.42,2.58,5.42,2.58a5,5,0,0,0,2.14.48h26.82a5,5,0,0,0,0-10.06H128.87c1.45-5.16,4.7-11.25,8.09-17.6,2.08-3.89,4.25-8,6.19-12.16a76.58,76.58,0,0,0,7.06,14.76v10.86a14.19,14.19,0,0,0,14.19,14.19h28.39a5,5,0,1,0,0-10.06h-5.11l4.43-39.93a85.76,85.76,0,0,0,7.43-4.31c2.72,8.51,11.92,31.25,33.88,37.76l20.71,15.53a5,5,0,0,0,3,1h32.19a5,5,0,0,0,0-10.06H284c-4.13,0-9.21-10.05-14.13-19.77-4.65-9.19-10.37-20.52-18.39-30.61,0-7.2-.44-26.72-4.81-36.12h21.23a5,5,0,0,0,3.94-1.91c2.74-3.46,8.63-3.46,12.15-3.46,12.78,0,18.19-2.27,19.15-2.72a5,5,0,0,0,2.62-3l4.47-13.86A5,5,0,0,0,307.84,49.37Z" style="fill:#6dc497"/></svg>